<svg width="512" height="512" viewBox="0 0 512 512" xmlns="http://www.w3.org/2000/svg">
  <defs><filter id="s" x="-20%" y="-20%" width="140%" height="140%"><feDropShadow dx="0" dy="12" stdDeviation="12" flood-color="#8B5E34" flood-opacity=".25"/></filter></defs>
  <ellipse cx="256" cy="458" rx="118" ry="28" fill="#D8B08A" opacity=".35"/>
  <g filter="url(#s)">
    <circle cx="166" cy="153" r="70" fill="#B98555"/>
    <circle cx="346" cy="153" r="70" fill="#B98555"/>
    <circle cx="166" cy="153" r="42" fill="#F0C89D"/>
    <circle cx="346" cy="153" r="42" fill="#F0C89D"/>
    <circle cx="256" cy="252" r="150" fill="#C89462"/>
    <ellipse cx="256" cy="295" rx="92" ry="76" fill="#F2D1A7"/>
    <circle cx="207" cy="232" r="17" fill="#4A3428"/>
    <circle cx="305" cy="232" r="17" fill="#4A3428"/>
    <circle cx="212" cy="226" r="5" fill="#fff"/>
    <circle cx="310" cy="226" r="5" fill="#fff"/>
    <ellipse cx="256" cy="270" rx="25" ry="19" fill="#4A3428"/>
    <path d="M230 308 Q256 332 282 308" fill="none" stroke="#4A3428" stroke-width="10" stroke-linecap="round"/>
    <circle cx="145" cy="288" r="36" fill="#B98555"/>
    <circle cx="367" cy="288" r="36" fill="#B98555"/>
    <ellipse cx="205" cy="385" rx="47" ry="62" fill="#B98555"/>
    <ellipse cx="307" cy="385" rx="47" ry="62" fill="#B98555"/>
    <path d="M162 315 Q116 355 136 405" fill="none" stroke="#B98555" stroke-width="42" stroke-linecap="round"/>
    <path d="M350 315 Q396 355 376 405" fill="none" stroke="#B98555" stroke-width="42" stroke-linecap="round"/>
  </g>
</svg>